<?xml version="1.0" encoding="utf-8" standalone="no"?>
<!DOCTYPE svg PUBLIC "-//W3C//DTD SVG 1.1//EN"
  "http://www.w3.org/Graphics/SVG/1.1/DTD/svg11.dtd">
<svg xmlns:xlink="http://www.w3.org/1999/xlink" width="763.2pt" height="230.4pt" viewBox="0 0 763.2 230.4" xmlns="http://www.w3.org/2000/svg" version="1.1">
 <metadata>
  <rdf:RDF xmlns:dc="http://purl.org/dc/elements/1.1/" xmlns:cc="http://creativecommons.org/ns#" xmlns:rdf="http://www.w3.org/1999/02/22-rdf-syntax-ns#">
   <cc:Work>
    <dc:type rdf:resource="http://purl.org/dc/dcmitype/StillImage"/>
    <dc:date>2026-04-07T21:50:57.990791</dc:date>
    <dc:format>image/svg+xml</dc:format>
    <dc:creator>
     <cc:Agent>
      <dc:title>Matplotlib v3.10.3, https://matplotlib.org/</dc:title>
     </cc:Agent>
    </dc:creator>
   </cc:Work>
  </rdf:RDF>
 </metadata>
 <defs>
  <style type="text/css">*{stroke-linejoin: round; stroke-linecap: butt}</style>
 </defs>
 <g id="figure_1">
  <g id="axes_1">
   <g id="line2d_1">
    <path d="M 34.690909 18.726072 
L 41.699174 26.733069 
L 48.707438 34.49867 
L 55.715702 42.027775 
L 62.723967 49.325236 
L 69.732231 56.395854 
L 76.740496 63.244379 
L 83.74876 69.875511 
L 90.757025 76.2939 
L 97.765289 82.504145 
L 104.773554 88.510797 
L 111.781818 94.318354 
L 118.790083 99.931264 
L 125.798347 105.353927 
L 132.806612 110.590691 
L 139.814876 115.645853 
L 146.82314 120.523662 
L 153.831405 125.228315 
L 160.839669 129.763959 
L 167.847934 134.134691 
L 174.856198 138.344558 
L 181.864463 142.397555 
L 188.872727 146.29763 
L 195.880992 150.048679 
L 202.889256 153.654545 
L 209.897521 157.119026 
L 216.905785 160.445866 
L 223.91405 163.63876 
L 230.922314 166.701352 
L 237.930579 169.637236 
L 244.938843 172.449957 
L 251.947107 175.143009 
L 258.955372 177.719834 
L 265.963636 180.183826 
L 272.971901 182.538327 
L 279.980165 184.786631 
L 286.98843 186.93198 
L 293.996694 188.977565 
L 301.004959 190.926529 
L 308.013223 192.781964 
L 315.021488 194.546909 
L 322.029752 196.224357 
L 329.038017 197.817249 
L 336.046281 199.328474 
L 343.054545 200.760873 
L 350.06281 202.117235 
L 357.071074 203.400302 
L 364.079339 204.612761 
L 371.087603 205.757252 
L 378.095868 206.836364 
L 385.104132 207.852635 
L 392.112397 208.808554 
L 399.120661 209.706559 
L 406.128926 210.549038 
L 413.13719 211.338327 
L 420.145455 212.076715 
L 427.153719 212.766439 
L 434.161983 213.409684 
L 441.170248 214.008588 
L 448.178512 214.565236 
L 455.186777 215.081665 
L 462.195041 215.559861 
L 469.203306 216.001757 
L 476.21157 216.409241 
L 483.219835 216.784145 
L 490.228099 217.128256 
L 497.236364 217.443307 
L 504.244628 217.730983 
L 511.252893 217.992916 
L 518.261157 218.230691 
L 525.269421 218.445841 
L 532.277686 218.639848 
L 539.28595 218.814145 
L 546.294215 218.970116 
L 553.302479 219.109091 
L 560.310744 219.232353 
L 567.319008 219.341133 
L 574.327273 219.436613 
L 581.335537 219.519923 
L 588.343802 219.592145 
L 595.352066 219.654309 
L 602.360331 219.707396 
L 609.368595 219.752334 
L 616.37686 219.790005 
L 623.385124 219.821236 
L 630.393388 219.846809 
L 637.401653 219.86745 
L 644.409917 219.88384 
L 651.418182 219.896606 
L 658.426446 219.906327 
L 665.434711 219.91353 
L 672.442975 219.918693 
L 679.45124 219.922244 
L 686.459504 219.924558 
L 693.467769 219.925964 
L 700.476033 219.926737 
L 707.484298 219.927103 
L 714.492562 219.927239 
L 721.500826 219.927271 
L 728.509091 219.927273 
" clip-path="url(#pd1d86cad45)" style="fill: none; stroke: #66c2a5; stroke-width: 3.5; stroke-linecap: square"/>
   </g>
   <g id="line2d_2">
    <path d="M 34.690909 211.797931 
L 41.699174 204.156317 
L 48.707438 196.987652 
L 55.715702 190.277356 
L 62.723967 184.011055 
L 69.732231 178.17457 
L 76.740496 172.753928 
L 83.74876 167.735356 
L 90.757025 163.105279 
L 97.765289 158.850327 
L 104.773554 154.95733 
L 111.781818 151.413317 
L 118.790083 148.205521 
L 125.798347 145.321373 
L 132.806612 142.748509 
L 139.814876 140.474763 
L 146.82314 138.48817 
L 153.831405 136.776968 
L 160.839669 135.329596 
L 167.847934 134.134691 
L 174.856198 133.181095 
L 181.864463 132.457848 
L 188.872727 131.954194 
L 195.880992 131.659575 
L 202.889256 131.563636 
L 209.897521 131.656224 
L 216.905785 131.927384 
L 223.91405 132.367364 
L 230.922314 132.966613 
L 237.930579 133.715782 
L 244.938843 134.605721 
L 251.947107 135.627482 
L 258.955372 136.772318 
L 265.963636 138.031685 
L 272.971901 139.397236 
L 279.980165 140.860829 
L 286.98843 142.414521 
L 293.996694 144.050571 
L 301.004959 145.761437 
L 308.013223 147.539782 
L 315.021488 149.378466 
L 322.029752 151.270553 
L 329.038017 153.209306 
L 336.046281 155.18819 
L 343.054545 157.200873 
L 350.06281 159.24122 
L 357.071074 161.3033 
L 364.079339 163.381382 
L 371.087603 165.469937 
L 378.095868 167.563636 
L 385.104132 169.657352 
L 392.112397 171.746159 
L 399.120661 173.82533 
L 406.128926 175.890343 
L 413.13719 177.936873 
L 420.145455 179.960798 
L 427.153719 181.958199 
L 434.161983 183.925354 
L 441.170248 185.858745 
L 448.178512 187.755055 
L 455.186777 189.611165 
L 462.195041 191.424162 
L 469.203306 193.19133 
L 476.21157 194.910156 
L 483.219835 196.578327 
L 490.228099 198.193733 
L 497.236364 199.754462 
L 504.244628 201.258807 
L 511.252893 202.705258 
L 518.261157 204.092509 
L 525.269421 205.419454 
L 532.277686 206.685188 
L 539.28595 207.889007 
L 546.294215 209.030408 
L 553.302479 210.109091 
L 560.310744 211.124954 
L 567.319008 212.078098 
L 574.327273 212.968824 
L 581.335537 213.797636 
L 588.343802 214.565236 
L 595.352066 215.272531 
L 602.360331 215.920625 
L 609.368595 216.510826 
L 616.37686 217.044642 
L 623.385124 217.523782 
L 630.393388 217.950156 
L 637.401653 218.325875 
L 644.409917 218.653253 
L 651.418182 218.934802 
L 658.426446 219.173236 
L 665.434711 219.371473 
L 672.442975 219.532627 
L 679.45124 219.660017 
L 686.459504 219.757162 
L 693.467769 219.827782 
L 700.476033 219.875797 
L 707.484298 219.90533 
L 714.492562 219.920704 
L 721.500826 219.926443 
L 728.509091 219.927273 
" clip-path="url(#pd1d86cad45)" style="fill: none; stroke: #fc8d62; stroke-width: 3.5; stroke-linecap: square"/>
   </g>
   <g id="line2d_3">
    <path d="M 34.690909 219.804101 
L 41.699174 219.444488 
L 48.707438 218.863064 
L 55.715702 218.074153 
L 62.723967 217.091782 
L 69.732231 215.929674 
L 76.740496 214.60125 
L 83.74876 213.119631 
L 90.757025 211.497636 
L 97.765289 209.747782 
L 104.773554 207.882283 
L 111.781818 205.913054 
L 118.790083 203.851708 
L 125.798347 201.709553 
L 132.806612 199.4976 
L 139.814876 197.226556 
L 146.82314 194.906826 
L 153.831405 192.548514 
L 160.839669 190.161423 
L 167.847934 187.755055 
L 174.856198 185.338607 
L 181.864463 182.920978 
L 188.872727 180.510763 
L 195.880992 178.116258 
L 202.889256 175.745455 
L 209.897521 173.406044 
L 216.905785 171.105416 
L 223.91405 168.850659 
L 230.922314 166.648559 
L 237.930579 164.5056 
L 244.938843 162.427966 
L 251.947107 160.421538 
L 258.955372 158.491896 
L 265.963636 156.644318 
L 272.971901 154.883782 
L 279.980165 153.214961 
L 286.98843 151.64223 
L 293.996694 150.16966 
L 301.004959 148.801021 
L 308.013223 147.539782 
L 315.021488 146.38911 
L 322.029752 145.35187 
L 329.038017 144.430626 
L 336.046281 143.62764 
L 343.054545 142.944873 
L 350.06281 142.383983 
L 357.071074 141.946328 
L 364.079339 141.632963 
L 371.087603 141.444642 
L 378.095868 141.381818 
L 385.104132 141.444642 
L 392.112397 141.632963 
L 399.120661 141.946328 
L 406.128926 142.383983 
L 413.13719 142.944873 
L 420.145455 143.62764 
L 427.153719 144.430626 
L 434.161983 145.35187 
L 441.170248 146.38911 
L 448.178512 147.539782 
L 455.186777 148.801021 
L 462.195041 150.16966 
L 469.203306 151.64223 
L 476.21157 153.214961 
L 483.219835 154.883782 
L 490.228099 156.644318 
L 497.236364 158.491896 
L 504.244628 160.421538 
L 511.252893 162.427966 
L 518.261157 164.5056 
L 525.269421 166.648559 
L 532.277686 168.850659 
L 539.28595 171.105416 
L 546.294215 173.406044 
L 553.302479 175.745455 
L 560.310744 178.116258 
L 567.319008 180.510763 
L 574.327273 182.920978 
L 581.335537 185.338607 
L 588.343802 187.755055 
L 595.352066 190.161423 
L 602.360331 192.548514 
L 609.368595 194.906826 
L 616.37686 197.226556 
L 623.385124 199.4976 
L 630.393388 201.709553 
L 637.401653 203.851708 
L 644.409917 205.913054 
L 651.418182 207.882283 
L 658.426446 209.747782 
L 665.434711 211.497636 
L 672.442975 213.119631 
L 679.45124 214.60125 
L 686.459504 215.929674 
L 693.467769 217.091782 
L 700.476033 218.074153 
L 707.484298 218.863064 
L 714.492562 219.444488 
L 721.500826 219.804101 
L 728.509091 219.927273 
" clip-path="url(#pd1d86cad45)" style="fill: none; stroke: #8da0cb; stroke-width: 3.5; stroke-linecap: square"/>
   </g>
   <g id="line2d_4">
    <path d="M 34.690909 219.926443 
L 41.699174 219.920704 
L 48.707438 219.90533 
L 55.715702 219.875797 
L 62.723967 219.827782 
L 69.732231 219.757162 
L 76.740496 219.660017 
L 83.74876 219.532627 
L 90.757025 219.371473 
L 97.765289 219.173236 
L 104.773554 218.934802 
L 111.781818 218.653253 
L 118.790083 218.325875 
L 125.798347 217.950156 
L 132.806612 217.523782 
L 139.814876 217.044642 
L 146.82314 216.510826 
L 153.831405 215.920625 
L 160.839669 215.272531 
L 167.847934 214.565236 
L 174.856198 213.797636 
L 181.864463 212.968824 
L 188.872727 212.078098 
L 195.880992 211.124954 
L 202.889256 210.109091 
L 209.897521 209.030408 
L 216.905785 207.889007 
L 223.91405 206.685188 
L 230.922314 205.419454 
L 237.930579 204.092509 
L 244.938843 202.705258 
L 251.947107 201.258807 
L 258.955372 199.754462 
L 265.963636 198.193733 
L 272.971901 196.578327 
L 279.980165 194.910156 
L 286.98843 193.19133 
L 293.996694 191.424162 
L 301.004959 189.611165 
L 308.013223 187.755055 
L 315.021488 185.858745 
L 322.029752 183.925354 
L 329.038017 181.958199 
L 336.046281 179.960798 
L 343.054545 177.936873 
L 350.06281 175.890343 
L 357.071074 173.82533 
L 364.079339 171.746159 
L 371.087603 169.657352 
L 378.095868 167.563636 
L 385.104132 165.469937 
L 392.112397 163.381382 
L 399.120661 161.3033 
L 406.128926 159.24122 
L 413.13719 157.200873 
L 420.145455 155.18819 
L 427.153719 153.209306 
L 434.161983 151.270553 
L 441.170248 149.378466 
L 448.178512 147.539782 
L 455.186777 145.761437 
L 462.195041 144.050571 
L 469.203306 142.414521 
L 476.21157 140.860829 
L 483.219835 139.397236 
L 490.228099 138.031685 
L 497.236364 136.772318 
L 504.244628 135.627482 
L 511.252893 134.605721 
L 518.261157 133.715782 
L 525.269421 132.966613 
L 532.277686 132.367364 
L 539.28595 131.927384 
L 546.294215 131.656224 
L 553.302479 131.563636 
L 560.310744 131.659575 
L 567.319008 131.954194 
L 574.327273 132.457848 
L 581.335537 133.181095 
L 588.343802 134.134691 
L 595.352066 135.329596 
L 602.360331 136.776968 
L 609.368595 138.48817 
L 616.37686 140.474763 
L 623.385124 142.748509 
L 630.393388 145.321373 
L 637.401653 148.205521 
L 644.409917 151.413317 
L 651.418182 154.95733 
L 658.426446 158.850327 
L 665.434711 163.105279 
L 672.442975 167.735356 
L 679.45124 172.753928 
L 686.459504 178.17457 
L 693.467769 184.011055 
L 700.476033 190.277356 
L 707.484298 196.987652 
L 714.492562 204.156317 
L 721.500826 211.797931 
L 728.509091 219.927273 
" clip-path="url(#pd1d86cad45)" style="fill: none; stroke: #e78ac3; stroke-width: 3.5; stroke-linecap: square"/>
   </g>
   <g id="line2d_5">
    <path d="M 34.690909 219.927271 
L 41.699174 219.927239 
L 48.707438 219.927103 
L 55.715702 219.926737 
L 62.723967 219.925964 
L 69.732231 219.924558 
L 76.740496 219.922244 
L 83.74876 219.918693 
L 90.757025 219.91353 
L 97.765289 219.906327 
L 104.773554 219.896606 
L 111.781818 219.88384 
L 118.790083 219.86745 
L 125.798347 219.846809 
L 132.806612 219.821236 
L 139.814876 219.790005 
L 146.82314 219.752334 
L 153.831405 219.707396 
L 160.839669 219.654309 
L 167.847934 219.592145 
L 174.856198 219.519923 
L 181.864463 219.436613 
L 188.872727 219.341133 
L 195.880992 219.232353 
L 202.889256 219.109091 
L 209.897521 218.970116 
L 216.905785 218.814145 
L 223.91405 218.639848 
L 230.922314 218.445841 
L 237.930579 218.230691 
L 244.938843 217.992916 
L 251.947107 217.730983 
L 258.955372 217.443307 
L 265.963636 217.128256 
L 272.971901 216.784145 
L 279.980165 216.409241 
L 286.98843 216.001757 
L 293.996694 215.559861 
L 301.004959 215.081665 
L 308.013223 214.565236 
L 315.021488 214.008588 
L 322.029752 213.409684 
L 329.038017 212.766439 
L 336.046281 212.076715 
L 343.054545 211.338327 
L 350.06281 210.549038 
L 357.071074 209.706559 
L 364.079339 208.808554 
L 371.087603 207.852635 
L 378.095868 206.836364 
L 385.104132 205.757252 
L 392.112397 204.612761 
L 399.120661 203.400302 
L 406.128926 202.117235 
L 413.13719 200.760873 
L 420.145455 199.328474 
L 427.153719 197.817249 
L 434.161983 196.224357 
L 441.170248 194.546909 
L 448.178512 192.781964 
L 455.186777 190.926529 
L 462.195041 188.977565 
L 469.203306 186.93198 
L 476.21157 184.786631 
L 483.219835 182.538327 
L 490.228099 180.183826 
L 497.236364 177.719834 
L 504.244628 175.143009 
L 511.252893 172.449957 
L 518.261157 169.637236 
L 525.269421 166.701352 
L 532.277686 163.63876 
L 539.28595 160.445866 
L 546.294215 157.119026 
L 553.302479 153.654545 
L 560.310744 150.048679 
L 567.319008 146.29763 
L 574.327273 142.397555 
L 581.335537 138.344558 
L 588.343802 134.134691 
L 595.352066 129.763959 
L 602.360331 125.228315 
L 609.368595 120.523662 
L 616.37686 115.645853 
L 623.385124 110.590691 
L 630.393388 105.353927 
L 637.401653 99.931264 
L 644.409917 94.318354 
L 651.418182 88.510797 
L 658.426446 82.504145 
L 665.434711 76.2939 
L 672.442975 69.875511 
L 679.45124 63.244379 
L 686.459504 56.395854 
L 693.467769 49.325236 
L 700.476033 42.027775 
L 707.484298 34.49867 
L 714.492562 26.733069 
L 721.500826 18.726072 
L 728.509091 10.472727 
" clip-path="url(#pd1d86cad45)" style="fill: none; stroke: #a6d854; stroke-width: 3.5; stroke-linecap: square"/>
   </g>
  </g>
 </g>
 <defs>
  <clipPath id="pd1d86cad45">
   <rect x="0" y="-0" width="763.2" height="230.4"/>
  </clipPath>
 </defs>
</svg>
